<?xml version="1.0" encoding="utf-8"?>
<!-- Generator: Adobe Illustrator 16.0.0, SVG Export Plug-In . SVG Version: 6.00 Build 0)  -->
<!DOCTYPE svg PUBLIC "-//W3C//DTD SVG 1.0//EN" "http://www.w3.org/TR/2001/REC-SVG-20010904/DTD/svg10.dtd">
<svg version="1.0" id="Calque_1" xmlns="http://www.w3.org/2000/svg" xmlns:xlink="http://www.w3.org/1999/xlink" x="0px" y="0px"
	 width="353px" height="353px" viewBox="0 0 353 353" enable-background="new 0 0 353 353" xml:space="preserve">
<g>
	<circle fill="#333333" cx="176.5" cy="176.303" r="164.217"/>
	<path fill="#1A1A1A" stroke="#000000" stroke-width="3" stroke-miterlimit="10" d="M22.055,173.371
		C22.596,88.529,91.531,19.917,176.5,19.917c85.304,0,154.458,69.153,154.458,154.458c0,0.223-0.007,0.445-0.008,0.669
		l20.331,10.249c0.144-2.913,0.219-5.844,0.219-8.792c0-96.65-78.351-175-175-175s-175,78.35-175,175
		c0,2.397,0.062,4.779,0.157,7.153L22.055,173.371z"/>
	<path fill="#1A1A1A" stroke="#000000" stroke-width="3" stroke-miterlimit="10" d="M330.837,182.102
		c-4.027,81.714-71.553,146.731-154.266,146.731c-83.265,0-151.13-65.889-154.328-148.371L2.138,190.597
		C9.317,280.653,84.667,351.5,176.571,351.5c91.358,0,166.352-70.01,174.292-159.303L330.837,182.102z"/>
	<path fill="#666666" stroke="#000000" stroke-width="3" stroke-miterlimit="10" d="M223.428,227.232c0,3.521-2.76,6-6.166,6
		h-81.523c-3.406,0-6.166-2.479-6.166-6l0,0c0-3.521,2.76-6,6.166-6h81.523C220.667,221.232,223.428,223.71,223.428,227.232
		L223.428,227.232z"/>
	<circle fill="#4D4D4D" stroke="#000000" stroke-width="3" stroke-miterlimit="10" cx="176.5" cy="11.614" r="8.938"/>
	<circle fill="#00FF00" stroke="#00FF00" stroke-width="2" stroke-miterlimit="10" cx="176.5" cy="176.303" r="19.656"/>
	<circle fill="#4D4D4D" stroke="#000000" stroke-width="2" stroke-miterlimit="10" cx="176.5" cy="176.303" r="17.531"/>
	<path fill="#1A1A1A" stroke="#000000" stroke-width="3" stroke-miterlimit="10" d="M94.707,173.232c0.416-24,11.167-47,28.017-61
		h108.969c16.851,14,27.601,37,28.017,61h20.539c-0.481-32-15.871-61-39.644-80H112.396c-23.772,19-39.163,48-39.644,80H94.707z"/>
	<path fill="#1A1A1A" stroke="#000000" stroke-width="3" stroke-miterlimit="10" d="M259.713,176.232
		c-0.712,46-37.375,82.67-82.505,82.67c-45.13,0-81.792-36.67-82.504-82.67H72.745c0.68,57,46.868,102.504,103.756,102.504
		s103.076-45.504,103.755-102.504H259.713z"/>
</g>
<g id="invertedSensor:Floor CliffDetector">
	<path id="invertedSensor:Floor CliffLeft" fill="#FF931E" d="M55.595,212.545c-1.473,4.117-5.945,6.24-9.991,4.741l-0.473-0.175
		c-4.046-1.499-6.132-6.051-4.66-10.168l13.933-38.955c1.473-4.117,5.945-6.24,9.991-4.741l0.473,0.175
		c4.046,1.499,6.132,6.051,4.66,10.168L55.595,212.545z"/>
	<path id="invertedSensor:Floor CliffRight" fill="#FF931E" d="M444.404,212.545c1.473,4.117,5.945,6.24,9.991,4.741l0.473-0.175
		c4.046-1.499,6.132-6.051,4.66-10.168l-13.933-38.955c-1.473-4.117-5.945-6.24-9.991-4.741l-0.473,0.175
		c-4.046,1.499-6.132,6.051-4.66,10.168L444.404,212.545z"/>
	<path id="invertedSensor:Floor CliffFrontLeft" fill="#FF931E" d="M163.401,70.14c-4.091,1.542-8.604-0.494-10.08-4.547l-0.173-0.474
		c-1.477-4.054,0.644-8.59,4.735-10.133l38.713-14.591c4.091-1.542,8.604,0.494,10.08,4.547l0.173,0.474
		c1.477,4.054-0.644,8.59-4.735,10.133L163.401,70.14z"/>
	<path id="invertedSensor:Floor CliffFrontRight" fill="#FF931E" d="M341.598,70.14c4.091,1.542,8.604-0.494,10.08-4.547l0.173-0.474
		c1.477-4.054-0.645-8.59-4.735-10.133l-38.714-14.591c-4.091-1.542-8.604,0.494-10.08,4.547l-0.173,0.474
		c-1.477,4.054,0.645,8.59,4.735,10.133L341.598,70.14z"/>
</g>
<g id="invertedSensor:Floor Wheels">
	<path id="invertedSensor:Floor WheelRight" fill="#FF1D25" d="M446.725,320c0,6.627-5.373,12-12,12h-9c-6.627,0-12-5.373-12-12v-76
		c0-6.627,5.373-12,12-12h9c6.627,0,12,5.373,12,12V320z"/>
	<path id="invertedSensor:Floor WheelLeft" fill="#FF1D25" d="M86.725,320c0,6.627-5.373,12-12,12h-9c-6.627,0-12-5.373-12-12v-76c0-6.627,5.373-12,12-12
		h9c6.627,0,12,5.373,12,12V320z"/>
	<circle id="invertedSensor:Floor CasterWheel" fill="#FF1D25" cx="251.725" cy="43" r="24.82"/>
</g>
<g id="Motors">
	<path id="MainBrush" fill="#FF7BAC" d="M399.725,359c0,6.627-5.344,12-11.937,12H115.225c-6.593,0-11.5-5.373-11.5-12v-37
		c0-6.627,4.907-12,11.5-12h272.563c6.593,0,11.937,5.373,11.937,12V359z"/>
	<path id="Vacuum" fill="#FF7BAC" d="M359.725,289c0,6.627-5.373,12-12,12h-192c-6.627,0-12-5.373-12-12v-36c0-6.627,5.373-12,12-12
		h192c6.627,0,12,5.373,12,12V289z"/>
	<path id="SideBrush" fill="#FF7BAC" d="M406.38,146.28l30.509-38.754c0.125,0.027,0.25,0.058,0.378,0.077
		c1.884,0.285,3.692-0.342,4.986-1.547l48.274,7.301c1.626,0.246,3.159-0.968,3.468-3.015c0.31-2.048-0.795-3.66-2.421-3.906
		l-47.953-7.252c-0.814-1.781-2.479-3.131-4.56-3.445c-0.147-0.022-0.294-0.033-0.441-0.044l-18.073-45.21
		c-0.611-1.526-2.434-2.234-4.356-1.466c-1.923,0.769-2.754,2.538-2.144,4.064l18.542,46.383c-0.164,0.414-0.288,0.85-0.357,1.308
		c-0.076,0.503-0.08,1-0.033,1.484c-0.13,0.112-0.255,0.233-0.365,0.372l-30.954,39.322c-1.017,1.292-0.719,3.225,0.909,4.505
		C403.414,147.737,405.363,147.572,406.38,146.28z"/>
</g>
<g id="sensor:Walls,Objects Bumpers">
	<path id="sensor:Walls,Objects BumperLeft" fill="#7AC943" d="M6.512,253.974c-0.008-0.75-0.012-1.484-0.012-2.206C6.5,123.938,105,17.684,231.725,7.571
		v16.378c-55.018,4.78-106.08,29.456-144.223,69.804c-38.68,40.916-60.486,94.233-61.598,150.445L6.512,253.974z"/>
	<path id="sensor:Walls,Objects BumperRight" fill="#7AC943" d="M477.145,246.61c-0.525-56.785-22.148-110.76-61.023-152.206
		c-38.102-40.621-89.227-65.514-144.396-70.417V7.61C398.196,17.941,496.5,124.175,496.5,251.768c0,1.515-0.015,3.043-0.043,4.578
		L477.145,246.61z"/>
	<circle id="sensor:VirtualWalls VirtualWall" fill="#7AC943" cx="251.5" cy="16.217" r="12.5"/>
	<circle id="sensor:Walls,Objects Wall" fill="#7AC943" cx="529.5" cy="249.217" r="12.5"/>
</g>
</svg>
